# xmcd
#
# Track frame offsets:
#	150
#	23747
#	40577
#	67540
#	84897
#	107867
#	122650
#	145590
#	165055
#	180760
#	206682
#
# Disc length: 3101 seconds
#
# Revision: 1
# Processed by: cddbd v1.4PL0 Copyright (c) Steve Scherf et al.
# Submitted via: audiograbber 1.82.00
#
DISCID=710c1b0b
DTITLE=Bo Ramsey and the Backsliders - Title: Live
DYEAR=1995
DGENRE=Blues
TTITLE0=I Don't Know  
TTITLE1=Wounded Dog  
TTITLE2=Side Lounge
TTITLE3=Long Long Time  
TTITLE4=Jimmy Lee  
TTITLE5=Get Themselves Up  
TTITLE6=Shake Your Hips  
TTITLE7=Get Away  
TTITLE8=Likeable 
TTITLE9=Clap Hands  
TTITLE10=One Wrong Turn  
EXTD=
EXTT0=
EXTT1=
EXTT2=
EXTT3=
EXTT4=
EXTT5=
EXTT6=
EXTT7=
EXTT8=
EXTT9=
EXTT10=
PLAYORDER=
